<svg xmlns="http://www.w3.org/2000/svg" viewBox="0 0 135.54 135.52"><defs><style>.cls-1{fill:#c32840;}.cls-2{fill:#c42c41;}</style></defs><g id="Layer_2" data-name="Layer 2"><g id="Layer_1-2" data-name="Layer 1"><path class="cls-1" d="M86.15,119.3c-18.53,16.75-38,21-59.49,10.56C6.82,120.21-3.57,97.65,1.12,76.13A48.75,48.75,0,0,1,47,37.41a72.25,72.25,0,0,1,9.65.08c3.35.33,5.56,2.34,5.51,5.89S60,48.83,56.54,49.12c-2.51.22-5.06,0-7.59.08a37.23,37.23,0,0,0,.12,74.45c20.52,0,36.88-16.53,37.08-37.44,0-1.84,0-3.68,0-5.52,0-4.21,1.62-7.43,6.3-7.27,4.19.14,5.86,3.12,5.89,7.06,0,5.52,0,11,0,16.54,0,9.88,0,19.76,0,29.64,0,4.21-.58,8.32-5.79,8.47-5.54.16-6.64-3.87-6.46-8.51C86.21,124.6,86.15,122.57,86.15,119.3Z"/><circle class="cls-2" cx="79.26" cy="56.12" r="5.7"/><path class="cls-1" d="M129.44,25.75H110V6.1a6.11,6.11,0,0,0-12.21,0V25.75H78.31a6.11,6.11,0,0,0,0,12.21H97.77V57.33a6.11,6.11,0,0,0,12.21,0V38h19.46a6.11,6.11,0,0,0,0-12.21Z"/><circle class="cls-1" cx="49.1" cy="86.43" r="21.85"/></g></g></svg>